<?xml version="1.0" encoding="UTF-8" standalone="no"?>
<svg
   width="36in"
   height="6in"
   viewBox="0 0 10800 1800"
   version="1.1"
   id="svg136"
   sodipodi:docname="PPT icon with text side-by-side (gray).svg"
   inkscape:version="1.2 (dc2aedaf03, 2022-05-15)"
   inkscape:export-filename="C:\Users\alec\Dropbox\Alec\PPT\01 Admin\01 Marketing\Logo\PPT logo side-by-side (100px by 587px).png"
   inkscape:export-xdpi="16.667402"
   inkscape:export-ydpi="16.667402"
   xmlns:inkscape="http://www.inkscape.org/namespaces/inkscape"
   xmlns:sodipodi="http://sodipodi.sourceforge.net/DTD/sodipodi-0.dtd"
   xmlns="http://www.w3.org/2000/svg"
   xmlns:svg="http://www.w3.org/2000/svg"
   xmlns:rdf="http://www.w3.org/1999/02/22-rdf-syntax-ns#"
   xmlns:cc="http://creativecommons.org/ns#"
   xmlns:dc="http://purl.org/dc/elements/1.1/">
  <metadata
     id="metadata142">
    <rdf:RDF>
      <cc:Work
         rdf:about="">
        <dc:format>image/svg+xml</dc:format>
        <dc:type
           rdf:resource="http://purl.org/dc/dcmitype/StillImage" />
      </cc:Work>
    </rdf:RDF>
  </metadata>
  <defs
     id="defs140" />
  <sodipodi:namedview
     pagecolor="#ffffff"
     bordercolor="#666666"
     borderopacity="1"
     objecttolerance="10"
     gridtolerance="10"
     guidetolerance="10"
     inkscape:pageopacity="0"
     inkscape:pageshadow="2"
     inkscape:window-width="1792"
     inkscape:window-height="1470"
     id="namedview138"
     showgrid="false"
     inkscape:zoom="0.16464121"
     inkscape:cx="1460.7521"
     inkscape:cy="179.1775"
     inkscape:window-x="888"
     inkscape:window-y="146"
     inkscape:window-maximized="0"
     inkscape:current-layer="g1049"
     inkscape:document-rotation="0"
     showguides="false"
     fit-margin-top="0"
     fit-margin-left="0"
     fit-margin-right="0"
     fit-margin-bottom="0"
     inkscape:showpageshadow="2"
     inkscape:pagecheckerboard="0"
     inkscape:deskcolor="#d1d1d1"
     inkscape:document-units="in" />
  <g
     inkscape:groupmode="layer"
     id="g1049"
     inkscape:label="color"
     style="display:none"
     transform="translate(-450,-0.07934572)">
    <rect
       style="fill:#8dd35f;stroke:#000000;stroke-width:61.875"
       id="rect1051"
       width="11350.439"
       height="2163.7961"
       x="260.19333"
       y="-151.76599" />
  </g>
  <g
     inkscape:groupmode="layer"
     id="g192"
     inkscape:label="TECHNOLOGY"
     style="display:inline"
     transform="translate(-450,-0.07934572)">
    <text
       xml:space="preserve"
       style="font-style:normal;font-weight:normal;font-size:916.667px;line-height:1.25;font-family:sans-serif;fill:#b3b3b3;fill-opacity:1;stroke:none;stroke-width:3.125"
       x="3347.8391"
       y="1611.059"
       id="text190"><tspan
         sodipodi:role="line"
         id="tspan188"
         x="3347.8391"
         y="1611.059"
         style="font-style:normal;font-variant:normal;font-weight:900;font-stretch:normal;font-size:916.667px;font-family:Arial;-inkscape-font-specification:'Arial Heavy';stroke-width:3.125;fill:#b3b3b3">TECHNOLOGY</tspan></text>
  </g>
  <g
     inkscape:groupmode="layer"
     id="g176"
     inkscape:label="PRECAST PILING"
     style="display:inline"
     transform="translate(-450,-0.07934572)">
    <text
       xml:space="preserve"
       style="font-style:normal;font-weight:normal;font-size:916.667px;line-height:1.25;font-family:sans-serif;fill:#b3b3b3;fill-opacity:1;stroke:none;stroke-width:3.125"
       x="2686.2969"
       y="853.21283"
       id="text180"><tspan
         sodipodi:role="line"
         id="tspan178"
         x="2686.2969"
         y="853.21283"
         style="font-style:normal;font-variant:normal;font-weight:900;font-stretch:normal;font-size:916.667px;font-family:Arial;-inkscape-font-specification:'Arial Heavy';fill:#b3b3b3;stroke-width:3.125"><tspan
   style="font-size:895.833px;fill:#b3b3b3"
   id="tspan182">PRECAST</tspan> PILING</tspan></text>
  </g>
  <g
     inkscape:groupmode="layer"
     id="layer4"
     inkscape:label="Border"
     style="display:none"
     transform="translate(-450,-0.07934572)">
    <path
       style="display:inline;fill:#000000;stroke-width:3.125"
       d="m 922.49756,0.0793457 -13.0005,1.0925293 -25.99487,3.24707 c -33.26,5.17 -67.38416,14.834043 -98.00413,28.894043 -108.83003,49.97 -187.17747,144.768232 -213.64747,261.688232 -3.87,17.09 -6.523,34.55584 -8.313,51.99584 L 562.5,367.99928 V 900 1432.0007 l 1.03759,21.0022 c 1.79,17.44 4.443,34.9059 8.313,51.9959 32.18,142.16 143.49063,253.4706 285.65063,285.6506 17.09,3.87 34.55584,6.523 51.99584,8.313 L 930.49928,1800 H 1462.5 1994.5007 l 21.0022,-1.0376 c 17.44,-1.79 34.9059,-4.443 51.9959,-8.313 142.35,-32.22 253.4306,-143.3006 285.6506,-285.6506 3.87,-17.09 6.523,-34.5559 8.313,-51.9959 l 1.0376,-21.0022 V 900 367.99928 l -1.0376,-21.00222 c -1.79,-17.44 -4.443,-34.90584 -8.313,-51.99584 -17.17,-75.84 -57.9394,-145.64325 -115.6494,-197.83325 -47.57,-43.020001 -107.5112,-73.677384 -170.0012,-87.817384 -17.09,-3.87 -34.5559,-6.5229883 -51.9959,-8.3129883 l -21.0022,-0.958252 h -716.0034 -236.9995 -76.99586 z"
       id="path18" />
  </g>
  <g
     inkscape:groupmode="layer"
     id="g1023"
     inkscape:label="Border cutout"
     style="display:inline"
     transform="translate(-450,-0.07934572)">
    <path
       id="path1021"
       style="display:inline;fill:#b3b3b3;stroke-width:1"
       d="m 151.19922,0 -4.16016,0.34960938 -8.31836,1.03906252 c -10.6432,1.6544 -21.56293,4.7468933 -31.36132,9.2460941 C 72.53376,26.625166 47.462587,56.9606 38.992188,94.375 c -1.238402,5.4688 -2.087357,11.05787 -2.660157,16.63867 L 36,117.73438 v 170.24023 170.24023 l 0.332031,6.72071 c 0.5728,5.5808 1.421756,11.16987 2.660157,16.63867 10.297598,45.4912 45.917004,81.1106 91.408202,91.4082 5.4688,1.2384 11.05787,2.08736 16.63867,2.66016 l 6.72071,0.33203 H 324 494.24023 l 6.72071,-0.33203 c 5.5808,-0.5728 11.16987,-1.42176 16.63867,-2.66016 45.552,-10.3104 81.0978,-45.8562 91.4082,-91.4082 1.2384,-5.4688 2.08736,-11.05787 2.66016,-16.63867 L 612,458.21484 V 287.97461 117.73438 l -0.33203,-6.72071 C 611.09517,105.43287 610.24621,99.8438 609.00781,94.375 603.51341,70.1062 590.4672,47.769159 572,31.068359 556.7776,17.301959 537.59641,7.4915969 517.59961,2.9667969 512.13081,1.7283969 506.54174,0.87944063 500.96094,0.30664062 L 494.24023,0 H 265.11914 189.2793 164.64062 Z m 191.36133,51.814453 h 38.71875 v 9.599609 h -38.71875 z m 9.59961,15.679688 H 370.7207 V 242.85547 h -18.56054 z m 22.7207,6.080078 10.87891,0.164062 140.15429,109.009769 0.32617,11.14648 -10.88085,-0.16406 L 375.20703,84.720703 Z m -72.96094,1.919922 h 44.16016 v 89.919919 h -44.16016 z m 97.59961,87.999999 h 58.56055 v 69.44141 l -41.11914,0.0781 z m -97.59961,8.32031 h 44.16016 v 22.72071 h -44.16016 z m 109.75977,5.75977 11.91992,47.67969 h 23.28125 v -47.67969 z m 51.20117,19.51953 h 104.31836 v 36.16016 H 462.88086 Z m -155.20117,3.8418 h 31.35937 v 77.11914 h -31.35937 z m 85.59961,22.73828 c 6.4848,0 12.97085,0.0567 13.28125,0.17187 1.3728,0.5056 3.91562,3.37738 4.79883,4.60938 -1.04321,1.0432 -3.56683,3.83271 -4.79883,4.28711 -0.6208,0.2304 -25.93975,0.2304 -26.56055,0 -1.3728,-0.5056 -3.91758,-3.37542 -4.80078,-4.60742 1.0432,-1.0432 3.56878,-3.83467 4.80078,-4.28907 0.3104,-0.11517 6.7945,-0.17187 13.2793,-0.17187 z M 126.24023,230.375 h 32 v 47.35938 h -32 z m 274.24024,8.35742 H 532 c 2.4672,-0.0352 4.74466,0.46192 7.03906,1.38672 2.3968,0.9696 4.86442,2.50283 6.66602,4.36524 9.4112,9.72479 6.36821,25.96358 -6.02539,31.55078 -2.5088,1.1296 -5.2576,1.69633 -8,1.69922 H 403.35938 c -15.76,-0.0256 -24.79271,-17.39241 -16.28711,-30.4004 3.2576,-4.9792 7.7602,-7.27036 13.4082,-8.60156 z m -183.36133,3.80274 h 32 v 35.19922 h -32 z m 184,2.26562 c -4.3968,1.0624 -7.77197,3.30519 -9.95117,7.33399 -3.7376,6.9056 -0.69156,15.96202 6.43164,19.23242 2.0832,0.9568 4.13479,1.24516 6.40039,1.24804 h 127.67969 c 2.0736,-0.0256 4.21768,-0.46723 6.08008,-1.39843 10.5728,-5.2864 10.17701,-21.10379 -0.95899,-25.45899 -1.888,-0.7392 -2.77838,-0.97303 -4.80078,-0.95703 z m -229.43945,3.49414 h 32 v 29.43946 h -32 z m -90.878909,0.32031 h 31.359379 v 29.43946 H 80.800781 Z m 447.039059,2.5586 c 3.4784,0.0192 4.46127,1.00207 4.48047,4.48047 v 6.40039 c -0.048,3.6128 -1.52718,4.15417 -4.80078,4.16015 H 406.56055 c -3.5872,-0.006 -4.78158,-0.70447 -4.80078,-4.48046 v -6.4004 c 0.0288,-2.04801 0.26529,-3.07437 2.24609,-3.95117 z M 262.88086,254.375 h 31.67969 v 23.35938 H 262.88086 Z M 81.119141,309.41406 h 61.441409 30.71875 l 6.40039,0.3086 7.04101,0.60156 c 14.8064,1.5808 29.43001,5.4521 41.59961,14.41211 7.0912,5.2224 13.00496,11.93334 16.87696,19.8789 3.7664,7.72484 5.28869,15.82752 5.87109,24.32032 l 0.29102,3.83984 c 0.0224,13.9648 -3.11242,28.26716 -10.38282,40.31836 -5.79517,9.6064 -14.95369,17.53047 -24.49609,23.29687 -10.6432,6.42881 -21.28921,9.6809 -33.59961,10.9961 l -6.08008,0.58789 -6.40039,0.32031 h -11.51953 -24.64063 v 66.87891 H 81.119141 Z m 158.080079,0 h 61.4414 30.71876 l 6.40039,0.3086 7.04101,0.60156 c 14.8064,1.5808 29.43001,5.4521 41.59961,14.41211 7.0912,5.2224 13.00495,11.93334 16.87695,19.8789 3.7664,7.72484 5.2887,15.82752 5.8711,24.32032 l 0.29101,3.83984 c 0.0224,13.9648 -3.11241,28.26716 -10.38281,40.31836 -5.7952,9.6064 -14.95369,17.53047 -24.49609,23.29687 -10.6432,6.42881 -21.28921,9.6809 -33.59961,10.9961 l -6.08008,0.58789 -6.40039,0.32031 h -11.51953 -24.64063 v 66.87891 h -53.12109 v -74.87891 c 0,-0.6688 -0.037,-1.61946 0.19336,-2.24023 0.5216,-1.4208 4.87533,-5.32234 6.17773,-6.72071 3.9552,-4.24323 7.95296,-10.21377 10.66016,-15.35937 3.6992,-7.0304 6.43894,-15.57698 7.99414,-23.35938 0.672,-3.36636 1.52908,-8.46704 1.53516,-11.83984 v -13.76172 c -0.1024,-8.688 -3.56692,-21.35914 -7.44532,-29.11914 -1.5648,-3.1296 -3.69319,-6.39606 -5.68359,-9.2793 -2.864,-4.14716 -6.0558,-7.03091 -9.5918,-10.56054 -1.8464,-1.84319 -3.78864,-2.72265 -3.83984,-5.43946 z m 151.04101,0 h 176.64063 v 39.67969 h -64.32031 v 166.08008 h -53.1211 V 349.09375 h -28.79883 c -0.48,-2.1056 -1.36938,-4.38564 -2.17578,-6.39844 -4.2912,-10.7008 -10.73122,-18.82265 -19.26562,-26.50586 z m -256,38.40039 v 61.75977 c 10,0 20.13768,0.40606 30.08008,-0.58594 6.7904,-0.6784 13.65073,-1.76024 19.51953,-5.52344 10.7424,-6.8896 12.61807,-17.63095 12.48047,-29.41015 -0.032,-2.5472 -0.78734,-5.95871 -1.74414,-8.32031 -2.0832,-5.14561 -6.55455,-10.1218 -11.37695,-12.8418 -4.4416,-2.5024 -13.74291,-4.74789 -18.87891,-4.75781 l -6.40039,-0.32032 z m 158.08008,0 v 61.75977 c 10,0 20.13768,0.40606 30.08008,-0.58594 6.7904,-0.6784 13.65073,-1.76024 19.51953,-5.52344 10.7424,-6.8896 12.61807,-17.63095 12.48047,-29.41015 -0.032,-2.5472 -0.78734,-5.95871 -1.74414,-8.32031 -2.0832,-5.14561 -6.55455,-10.1218 -11.37695,-12.8418 -4.4416,-2.5024 -13.74291,-4.74789 -18.87891,-4.75781 L 316,347.81445 Z"
       transform="matrix(3.125,0,0,3.125,450,0.07934572)" />
  </g>
  <g
     inkscape:groupmode="layer"
     id="layer1"
     inkscape:label="PPT"
     style="display:none;opacity:1"
     transform="translate(-450,-0.07934572)">
    <path
       id="path68"
       style="display:inline;fill:#8dd35f;stroke-width:3.125"
       d="M 703.49731,966.99828 V 1609.9976 H 869.50072 V 1401.001 h 77.00197 35.99853 l 20.00118,-1.001 19.0003,-1.8372 c 38.47,-4.11 71.7388,-14.2727 104.9988,-34.3627 29.82,-18.02 58.4403,-42.7828 76.5502,-72.8028 22.72,-37.66 32.5164,-82.3549 32.4464,-125.9949 l -0.9095,-11.9995 c -1.82,-26.54 -6.5771,-51.8609 -18.3471,-76.001 -12.1,-24.8299 -30.5805,-45.8015 -52.7405,-62.1215 -38.03,-28.00002 -83.7288,-40.09787 -129.9988,-45.03787 l -22.0032,-1.87987 -20.00119,-0.96438 h -95.99609 z m 494.00029,0 v 10.00366 c 0.16,8.49003 6.2295,11.23831 11.9995,16.99826 11.05,11.0301 21.0243,20.0418 29.9743,33.0017 6.22,9.0101 12.8713,19.2179 17.7613,28.9979 12.12,24.25 22.9466,63.8473 23.2666,90.9973 v 43.0053 c -0.019,10.54 -2.6974,26.4796 -4.7974,36.9995 -4.86,24.32 -13.4217,51.0281 -24.9817,72.9981 -8.46,16.08 -20.953,34.738 -33.313,47.9981 -4.07,4.3699 -17.6754,16.5622 -19.3054,21.0022 -0.7199,1.9399 -0.6042,4.9107 -0.6042,7.0007 v 233.9966 H 1363.501 V 1401.001 h 77.0019 35.9986 l 20.0012,-1.001 19.0002,-1.8372 c 38.47,-4.11 71.7388,-14.2727 104.9988,-34.3627 29.82,-18.02 58.4403,-42.7828 76.5503,-72.8028 22.72,-37.66 32.5163,-82.3549 32.4463,-125.9949 l -0.9094,-11.9995 c -1.82,-26.54 -6.5772,-51.8609 -18.3472,-76.001 -12.1,-24.8299 -30.5805,-45.8015 -52.7405,-62.1215 -38.03,-28.00002 -83.7288,-40.09787 -129.9988,-45.03787 l -22.0031,-1.87987 -20.0012,-0.96438 h -95.9962 z m 472.0031,0 27.9969,21.1731 c 26.67,24.01002 46.795,49.39082 60.205,82.83082 2.52,6.29 5.2993,13.4151 6.7993,19.9951 h 89.9964 v 519.0003 h 166.0034 v -519.0003 h 201.001 V 966.99828 Z M 869.50072,1086.9995 h 73.99903 l 20.00122,1.001 c 16.05,0.031 45.11663,7.0482 58.99663,14.8682 15.07,8.5 29.0429,24.0506 35.5529,40.1306 2.99,7.38 5.3505,18.041 5.4505,26.001 0.43,36.81 -5.4315,70.3767 -39.0015,91.9067 -18.34,11.76 -39.77853,15.1407 -60.99853,17.2607 -31.07,3.1 -62.75025,1.8311 -94.00025,1.8311 z m 494.00028,0 h 73.999 l 20.0012,1.001 c 16.05,0.031 45.1166,7.0482 58.9966,14.8682 15.07,8.5 29.043,24.0506 35.553,40.1306 2.99,7.38 5.3504,18.041 5.4504,26.001 0.43,36.81 -5.4314,70.3767 -39.0014,91.9067 -18.34,11.76 -39.7786,15.1407 -60.9986,17.2607 -31.07,3.1 -62.7502,1.8311 -94.0002,1.8311 z" />
  </g>
  <g
     inkscape:groupmode="layer"
     id="layer2"
     inkscape:label="Rig"
     style="display:none"
     transform="translate(-450,-0.07934572)">
    <path
       id="path56"
       style="display:inline;fill:#8dd35f;stroke-width:3.125"
       d="m 1520.5017,161.99951 v 29.99878 h 120.9961 v -29.99878 z m 29.9988,48.99902 v 548.00416 h 58.0017 V 210.99853 Z m 71.0022,19.00025 1.0193,34.83276 437.9761,340.65552 34.0026,0.51269 -1.0193,-34.83275 -437.9821,-340.65553 z m -228.0029,5.99975 v 280.99975 h 138.0005 V 235.99853 Z m 304.9987,275 54.5044,217.24853 128.4973,-0.24406 V 510.99859 Z m -304.9987,26.00097 v 71.00222 h 138.0005 V 536.9995 Z m 342.9992,17.99928 h 110.0037 v 148.99903 h -72.7539 z m 160.0037,60.99853 v 113.0005 h 325.9949 v -113.0005 z m -217.5049,83.06275 c -20.265,0 -40.5278,0.17719 -41.4978,0.5371 -3.85,1.42 -11.7424,10.14334 -15.0024,13.40334 2.76,3.85 10.7124,12.81819 15.0024,14.39819 1.94,0.72 81.0617,0.72 83.0017,0 3.85,-1.42 11.7364,-10.13722 14.9964,-13.39722 -2.76,-3.85 -10.7064,-12.82431 -14.9964,-14.40431 -0.97,-0.35991 -21.2389,-0.5371 -41.5039,-0.5371 z m 22.5037,47.0581 c -17.65,4.16 -31.7207,11.3199 -41.9007,26.8799 -26.58,40.64994 1.6473,94.92122 50.8973,95.00122 h 401.0009 c 8.57,-0.009 17.16,-1.78006 25,-5.31006 38.73,-17.46 48.2394,-68.20619 18.8294,-98.59619 -5.63,-5.82 -13.3413,-10.61137 -20.8313,-13.64137 -7.17,-2.89 -14.2871,-4.4435 -21.9971,-4.3335 z m 1.9958,18.96362 H 2112.5 c 6.32,-0.05 9.1024,0.68072 15.0024,2.99072 34.8,13.61 36.0369,63.03934 2.9969,79.55934 -5.82,2.91 -12.5203,4.29013 -19.0003,4.3701 H 1712.5 c -7.08,-0.009 -13.4912,-0.91013 -20.0012,-3.90013 -22.26,-10.22 -31.7789,-38.52131 -20.0989,-60.10131 6.81,-12.59 17.3574,-19.59872 31.0974,-22.91872 z m 396.0022,19.91578 -386.9812,0.65307 c -6.19,2.74 -6.929,5.94737 -7.019,12.34743 v 20.00122 c 0.06,11.8 3.7924,13.98269 15.0024,14.00144 h 377.9968 c 10.23,-0.0187 14.8525,-1.71047 15.0025,-13.00047 v -20.00122 c -0.06,-10.87 -3.1315,-13.94147 -14.0015,-14.00147 z" />
  </g>
  <g
     inkscape:groupmode="layer"
     id="layer3"
     inkscape:label="Piles"
     style="display:none"
     transform="translate(-450,-0.07934572)">
    <path
       style="display:inline;fill:#8dd35f;stroke-width:3.125"
       d="m 1271.5027,795.00122 h 98.999 v 72.99806 h -98.999 z"
       id="path58" />
    <path
       style="display:inline;fill:#8dd35f;stroke-width:3.125"
       d="m 702.50244,777.00194 h 97.99806 v 91.99831 h -97.99806 z"
       id="path54" />
    <path
       style="display:inline;fill:#8dd35f;stroke-width:3.125"
       d="m 986.49903,776.00097 h 99.99997 v 91.99831 h -99.99997 z"
       id="path52" />
    <path
       style="display:inline;fill:#8dd35f;stroke-width:3.125"
       d="m 1128.4973,758.00172 h 100 v 109.99756 h -100 z"
       id="path48" />
    <path
       style="display:inline;fill:#8dd35f;stroke-width:3.125"
       d="m 844.50072,720.00122 h 100 v 147.99806 h -100 z"
       id="path44" />
    <path
       style="display:inline;fill:#8dd35f;stroke-width:3.125"
       d="m 1411.499,628.00294 h 97.9981 v 240.99731 h -97.9981 z"
       id="path40" />
  </g>
</svg>
