<?xml version="1.0" encoding="UTF-8" standalone="no"?>
<svg
   xmlns:dc="http://purl.org/dc/elements/1.1/"
   xmlns:cc="http://creativecommons.org/ns#"
   xmlns:rdf="http://www.w3.org/1999/02/22-rdf-syntax-ns#"
   xmlns:svg="http://www.w3.org/2000/svg"
   xmlns="http://www.w3.org/2000/svg"
   xmlns:sodipodi="http://sodipodi.sourceforge.net/DTD/sodipodi-0.dtd"
   xmlns:inkscape="http://www.inkscape.org/namespaces/inkscape"
   width="8.9562054in"
   height="10.840899in"
   viewBox="0 0 2686.8616 3252.2698"
   version="1.1"
   id="svg136"
   sodipodi:docname="PPTlogotxtphwhite.svg"
   inkscape:version="1.0.1 (3bc2e813f5, 2020-09-07)">
  <metadata
     id="metadata142">
    <rdf:RDF>
      <cc:Work
         rdf:about="">
        <dc:format>image/svg+xml</dc:format>
        <dc:type
           rdf:resource="http://purl.org/dc/dcmitype/StillImage" />
        <dc:title></dc:title>
      </cc:Work>
    </rdf:RDF>
  </metadata>
  <defs
     id="defs140" />
  <sodipodi:namedview
     pagecolor="#333333"
     bordercolor="#666666"
     borderopacity="1"
     objecttolerance="10"
     gridtolerance="10"
     guidetolerance="10"
     inkscape:pageopacity="0.01176471"
     inkscape:pageshadow="2"
     inkscape:window-width="1529"
     inkscape:window-height="778"
     id="namedview138"
     showgrid="false"
     inkscape:zoom="0.46567565"
     inkscape:cx="95.362671"
     inkscape:cy="505.60968"
     inkscape:window-x="2"
     inkscape:window-y="0"
     inkscape:window-maximized="0"
     inkscape:current-layer="layer6"
     inkscape:document-rotation="0"
     showguides="false"
     inkscape:pagecheckerboard="false" />
  <g
     inkscape:groupmode="layer"
     id="layer5"
     inkscape:label="Layer1"
     style="display:none"
     sodipodi:insensitive="true"
     transform="translate(-6.2500005,-0.07934572)">
    <path
       id="Border"
       style="fill:#000000"
       d="M 259.19922,0.02539063 255.03906,0.375 246.7207,1.4140625 c -10.6432,1.6544 -21.56293,4.7468937 -31.36132,9.2460935 -34.82561,15.9904 -59.89679,46.325835 -68.36719,83.740235 -1.2384,5.4688 -2.08736,11.057869 -2.66016,16.638669 L 144,117.75977 V 288 458.24023 l 0.33203,6.72071 c 0.5728,5.5808 1.42176,11.16987 2.66016,16.63867 10.2976,45.4912 45.917,81.1106 91.4082,91.4082 5.4688,1.2384 11.05787,2.08736 16.63867,2.66016 L 261.75977,576 H 432 602.24023 l 6.72071,-0.33203 c 5.5808,-0.5728 11.16987,-1.42176 16.63867,-2.66016 45.552,-10.3104 81.0978,-45.8562 91.4082,-91.4082 1.2384,-5.4688 2.08736,-11.05787 2.66016,-16.63867 L 720,458.24023 V 288 117.75977 l -0.33203,-6.72071 c -0.5728,-5.5808 -1.42176,-11.169869 -2.66016,-16.638669 C 711.51341,70.131591 698.4672,47.79455 680,31.09375 664.7776,17.32735 645.59641,7.5169875 625.59961,2.9921875 620.13081,1.7537875 614.54174,0.90483125 608.96094,0.33203125 L 602.24023,0.02539063 H 373.11914 297.2793 272.64062 Z M 450.56055,51.839844 h 38.71875 v 9.599609 h -38.71875 z m 9.59961,15.679687 H 478.7207 V 242.88086 h -18.56054 z m 22.7207,6.080078 10.87891,0.164063 140.15429,109.009768 0.32617,11.14648 -10.88085,-0.16406 L 483.20703,84.746094 Z m -72.96094,1.919922 h 44.16016 v 89.919919 h -44.16016 z m 97.59961,87.999999 h 58.56055 v 69.44141 l -41.11914,0.0781 z m -97.59961,8.32031 h 44.16016 v 22.72071 h -44.16016 z m 109.75977,5.75977 11.91992,47.67969 h 23.28125 v -47.67969 z m 51.20117,19.51953 H 675.19922 V 233.2793 H 570.88086 Z m -155.20117,3.8418 h 31.35937 v 77.11914 h -31.35937 z m 85.59961,22.73828 c 6.4848,0 12.97085,0.0567 13.28125,0.17187 1.3728,0.5056 3.91563,3.37738 4.79883,4.60938 -1.0432,1.0432 -3.56683,3.83271 -4.79883,4.28711 -0.6208,0.2304 -25.93975,0.2304 -26.56055,0 -1.3728,-0.5056 -3.91758,-3.37542 -4.80078,-4.60742 1.0432,-1.0432 3.56878,-3.83467 4.80078,-4.28907 0.3104,-0.1152 6.7945,-0.17187 13.2793,-0.17187 z m -267.03907,6.70117 h 32 v 47.35938 h -32 z m 274.24024,8.35742 H 640 c 2.4672,-0.0352 4.74466,0.46192 7.03906,1.38672 2.3968,0.9696 4.86442,2.50284 6.66602,4.36524 9.4112,9.7248 6.36821,25.96358 -6.02539,31.55078 -2.5088,1.1296 -5.2576,1.69602 -8,1.69922 H 511.35938 c -15.76,-0.0256 -24.79271,-17.3924 -16.28711,-30.40039 3.2576,-4.9792 7.7602,-7.27037 13.4082,-8.60157 z m -183.36133,3.80274 h 32 v 35.19922 h -32 z m 184,2.26562 c -4.3968,1.0624 -7.77197,3.30519 -9.95117,7.33399 -3.7376,6.9056 -0.69156,15.96202 6.43164,19.23242 2.0832,0.9568 4.13479,1.24484 6.40039,1.24804 h 127.67969 c 2.0736,-0.0256 4.21768,-0.46723 6.08008,-1.39843 10.5728,-5.2864 10.17701,-21.10379 -0.95899,-25.45899 -1.888,-0.7392 -2.77838,-0.97303 -4.80078,-0.95703 z m -229.43945,3.49414 h 32 v 29.43946 h -32 z m -90.87891,0.32031 h 31.35938 v 29.43946 h -31.35938 z m 447.03906,2.5586 c 3.4784,0.0192 4.46127,1.00207 4.48047,4.48047 v 6.40039 c -0.048,3.6128 -1.52718,4.15375 -4.80078,4.16015 H 514.56055 c -3.5872,-0.006 -4.78158,-0.70446 -4.80078,-4.48046 v -6.40039 c 0.0288,-2.04801 0.26529,-3.07438 2.24609,-3.95118 z m -264.95898,3.20117 h 31.67969 v 23.35938 h -31.67969 z m -181.76172,55.03906 h 61.44141 30.71875 l 6.40039,0.3086 7.04101,0.60156 c 14.8064,1.5808 29.43001,5.45211 41.59961,14.41211 7.0912,5.2224 13.00496,11.9333 16.87696,19.8789 3.7664,7.72481 5.28869,15.82752 5.87109,24.32032 l 0.29102,3.83984 c 0.0224,13.9648 -3.11242,28.26716 -10.38282,40.31836 -5.7952,9.6064 -14.95369,17.53048 -24.49609,23.29688 -10.6432,6.4288 -21.28921,9.68089 -33.59961,10.99609 L 284.80078,448 l -6.40039,0.32031 h -11.51953 -24.64063 v 66.87891 h -53.12109 z m 158.08008,0 h 61.4414 30.71876 l 6.40039,0.3086 7.04101,0.60156 c 14.8064,1.5808 29.43001,5.45211 41.59961,14.41211 7.0912,5.2224 13.00495,11.9333 16.87695,19.8789 3.7664,7.72481 5.2887,15.82752 5.8711,24.32032 l 0.29101,3.83984 c 0.0224,13.9648 -3.11241,28.26716 -10.38281,40.31836 -5.7952,9.6064 -14.95369,17.53048 -24.49609,23.29688 -10.6432,6.4288 -21.28921,9.68089 -33.59961,10.99609 L 442.88086,448 l -6.40039,0.32031 h -11.51953 -24.64063 v 66.87891 h -53.12109 v -74.87891 c 0,-0.6688 -0.037,-1.61943 0.19336,-2.24023 0.5216,-1.4208 4.87533,-5.3223 6.17773,-6.7207 3.9552,-4.24321 7.95296,-10.21378 10.66016,-15.35938 3.6992,-7.0304 6.43894,-15.57698 7.99414,-23.35938 0.672,-3.36639 1.52876,-8.46704 1.53516,-11.83984 v -13.76172 c -0.1024,-8.688 -3.56692,-21.35914 -7.44532,-29.11914 -1.5648,-3.1296 -3.69319,-6.39609 -5.68359,-9.2793 -2.864,-4.14719 -6.0558,-7.03094 -9.5918,-10.56054 -1.8464,-1.8432 -3.78864,-2.72265 -3.83984,-5.43946 z m 151.04101,0 h 176.64063 v 39.67969 h -64.32031 v 166.08008 h -53.1211 V 349.11914 h -28.79883 c -0.48,-2.1056 -1.36938,-4.38564 -2.17578,-6.39844 -4.2912,-10.7008 -10.73122,-18.82266 -19.26562,-26.50586 z m -256,38.40039 v 61.75977 c 10,0 20.13768,0.40606 30.08008,-0.58594 6.7904,-0.6784 13.65073,-1.76024 19.51953,-5.52344 10.7424,-6.8896 12.61807,-17.63095 12.48047,-29.41015 -0.032,-2.5472 -0.78734,-5.95871 -1.74414,-8.32031 -2.0832,-5.1456 -6.55455,-10.1218 -11.37695,-12.8418 -4.4416,-2.5024 -13.74291,-4.74821 -18.87891,-4.75781 l -6.40039,-0.32032 z m 158.08008,0 v 61.75977 c 10,0 20.13768,0.40606 30.08008,-0.58594 6.7904,-0.6784 13.65073,-1.76024 19.51953,-5.52344 10.7424,-6.8896 12.61807,-17.63095 12.48047,-29.41015 -0.032,-2.5472 -0.78734,-5.95871 -1.74414,-8.32031 -2.0832,-5.1456 -6.55455,-10.1218 -11.37695,-12.8418 -4.4416,-2.5024 -13.74291,-4.74821 -18.87891,-4.75781 L 424,347.83984 Z"
       transform="scale(3.125)" />
  </g>
  <g
     inkscape:groupmode="layer"
     id="g20"
     inkscape:label="Layer1 copy"
     style="display:inline"
     transform="translate(-6.2500005,-0.07934572)" />
  <g
     inkscape:groupmode="layer"
     id="layer6"
     inkscape:label="Text"
     style="display:inline"
     transform="translate(-6.2500005,-0.07934572)">
    <text
       xml:space="preserve"
       style="font-style:normal;font-weight:normal;font-size:354.167px;line-height:1.25;font-family:sans-serif;fill:#ffffff;fill-opacity:1;stroke:none;stroke-width:3.125"
       x="-17.095968"
       y="2136.0781"
       id="text35"><tspan
         sodipodi:role="line"
         id="tspan33"
         x="-17.095968"
         y="2136.0781"
         style="font-style:normal;font-variant:normal;font-weight:bold;font-stretch:normal;font-size:354.167px;font-family:Consolas;-inkscape-font-specification:'Consolas Bold';fill:#ffffff;stroke-width:3.125">PRECAST PILING</tspan></text>
    <text
       xml:space="preserve"
       style="font-style:normal;font-weight:normal;font-size:354.166px;line-height:1.25;font-family:sans-serif;display:inline;fill:#ffffff;fill-opacity:1;stroke:none;stroke-width:3.125"
       x="370.71332"
       y="2542.3274"
       id="text35-2"><tspan
         sodipodi:role="line"
         id="tspan33-5"
         x="370.71332"
         y="2542.3274"
         style="font-style:normal;font-variant:normal;font-weight:bold;font-stretch:normal;font-size:354.166px;font-family:Consolas;-inkscape-font-specification:'Consolas Bold';fill:#ffffff;stroke-width:3.125">TECHNOLOGY</tspan></text>
    <text
       xml:space="preserve"
       style="font-style:normal;font-weight:normal;font-size:354.166px;line-height:1.25;font-family:sans-serif;display:inline;fill:#ffffff;fill-opacity:1;stroke:none;stroke-width:3.125"
       x="68.587334"
       y="3179.7175"
       id="text35-2-9"><tspan
         sodipodi:role="line"
         id="tspan33-5-7"
         x="68.587334"
         y="3179.7175"
         style="font-style:normal;font-variant:normal;font-weight:bold;font-stretch:normal;font-size:354.166px;font-family:Consolas;-inkscape-font-specification:'Consolas Bold';fill:#ffffff;stroke-width:3.125">(813)984-7453</tspan></text>
  </g>
  <g
     inkscape:groupmode="layer"
     id="layer4"
     inkscape:label="Border"
     style="display:inline"
     transform="translate(-6.2500005,-0.07934572)">
    <path
       style="display:inline;fill:#ffffff"
       d="M 259.19922,0.02539063 255.03906,0.375 246.7207,1.4140625 c -10.6432,1.6544 -21.56293,4.7468937 -31.36132,9.2460935 -34.82561,15.9904 -59.89679,46.325835 -68.36719,83.740235 -1.2384,5.4688 -2.08736,11.057869 -2.66016,16.638669 L 144,117.75977 V 288 458.24023 l 0.33203,6.72071 c 0.5728,5.5808 1.42176,11.16987 2.66016,16.63867 10.2976,45.4912 45.917,81.1106 91.4082,91.4082 5.4688,1.2384 11.05787,2.08736 16.63867,2.66016 L 261.75977,576 H 432 602.24023 l 6.72071,-0.33203 c 5.5808,-0.5728 11.16987,-1.42176 16.63867,-2.66016 45.552,-10.3104 81.0978,-45.8562 91.4082,-91.4082 1.2384,-5.4688 2.08736,-11.05787 2.66016,-16.63867 L 720,458.24023 V 288 117.75977 l -0.33203,-6.72071 c -0.5728,-5.5808 -1.42176,-11.169869 -2.66016,-16.638669 C 711.51341,70.131591 698.4672,47.79455 680,31.09375 664.7776,17.32735 645.59641,7.5169875 625.59961,2.9921875 620.13081,1.7537875 614.54174,0.90483125 608.96094,0.33203125 L 602.24023,0.02539063 H 373.11914 297.2793 272.64062 Z"
       id="path18"
       transform="scale(3.125)" />
  </g>
  <g
     inkscape:groupmode="layer"
     id="layer1"
     inkscape:label="PPT"
     style="display:inline"
     transform="translate(-6.2500005,-0.07934572)">
    <path
       id="path68"
       style="display:inline;fill:#333333"
       d="m 189.11914,309.43945 v 205.75977 h 53.12109 v -66.87891 h 24.64063 11.51953 L 284.80078,448 l 6.08008,-0.58789 c 12.3104,-1.3152 22.95641,-4.56729 33.59961,-10.99609 9.5424,-5.7664 18.70089,-13.69048 24.49609,-23.29688 7.2704,-12.0512 10.40522,-26.35356 10.38282,-40.31836 l -0.29102,-3.83984 c -0.5824,-8.4928 -2.10469,-16.59551 -5.87109,-24.32032 -3.872,-7.94559 -9.78576,-14.6565 -16.87696,-19.8789 -12.1696,-8.96 -26.79321,-12.83131 -41.59961,-14.41211 l -7.04101,-0.60156 -6.40039,-0.3086 h -30.71875 z m 158.08008,0 v 3.20117 c 0.0512,2.71681 1.99344,3.59626 3.83984,5.43946 3.536,3.5296 6.7278,6.41335 9.5918,10.56054 1.9904,2.88321 4.11879,6.1497 5.68359,9.2793 3.8784,7.76 7.34292,20.43114 7.44532,29.11914 v 13.76172 c -0.006,3.3728 -0.86316,8.47345 -1.53516,11.83984 -1.5552,7.7824 -4.29494,16.32898 -7.99414,23.35938 -2.7072,5.1456 -6.70496,11.11617 -10.66016,15.35938 -1.3024,1.39839 -5.65613,5.2999 -6.17773,6.7207 -0.23036,0.6208 -0.19336,1.57143 -0.19336,2.24023 v 74.87891 h 53.12109 v -66.87891 h 24.64063 11.51953 L 442.88086,448 l 6.08008,-0.58789 c 12.3104,-1.3152 22.95641,-4.56729 33.59961,-10.99609 9.5424,-5.7664 18.70089,-13.69048 24.49609,-23.29688 7.2704,-12.0512 10.40521,-26.35356 10.38281,-40.31836 l -0.29101,-3.83984 c -0.5824,-8.4928 -2.1047,-16.59551 -5.8711,-24.32032 -3.872,-7.94559 -9.78575,-14.6565 -16.87695,-19.8789 -12.1696,-8.96 -26.79321,-12.83131 -41.59961,-14.41211 l -7.04101,-0.60156 -6.40039,-0.3086 h -30.71876 z m 151.04101,0 8.95899,6.77539 c 8.5344,7.6832 14.97442,15.80506 19.26562,26.50586 0.8064,2.0128 1.69578,4.29284 2.17578,6.39844 h 28.79883 v 166.08008 h 53.1211 V 349.11914 h 64.32031 v -39.67969 z m -256,38.40039 h 23.67969 l 6.40039,0.32032 c 5.136,0.01 14.43731,2.25541 18.87891,4.75781 4.8224,2.72 9.29375,7.6962 11.37695,12.8418 0.9568,2.3616 1.71214,5.77311 1.74414,8.32031 0.1376,11.7792 -1.73807,22.52055 -12.48047,29.41015 -5.8688,3.7632 -12.72913,4.84504 -19.51953,5.52344 -9.9424,0.992 -20.08008,0.58594 -30.08008,0.58594 z m 158.08008,0 H 424 l 6.40039,0.32032 c 5.136,0.01 14.43731,2.25541 18.87891,4.75781 4.8224,2.72 9.29375,7.6962 11.37695,12.8418 0.9568,2.3616 1.71214,5.77311 1.74414,8.32031 0.1376,11.7792 -1.73807,22.52055 -12.48047,29.41015 -5.8688,3.7632 -12.72913,4.84504 -19.51953,5.52344 -9.9424,0.992 -20.08008,0.58594 -30.08008,0.58594 z"
       transform="scale(3.125)" />
  </g>
  <g
     inkscape:groupmode="layer"
     id="layer2"
     inkscape:label="Rig"
     style="display:inline"
     transform="translate(-6.2500005,-0.07934572)">
    <path
       id="path56"
       style="display:inline;fill:#333333"
       d="m 450.56055,51.839844 v 9.599609 h 38.71875 v -9.599609 z m 9.59961,15.679687 V 242.88086 H 478.7207 V 67.519531 Z m 22.7207,6.080078 0.32617,11.146485 140.15235,109.009766 10.88085,0.16406 -0.32617,-11.14648 L 493.75977,73.763672 Z m -72.96094,1.919922 v 89.919919 h 44.16016 V 75.519531 Z m 97.59961,87.999999 17.44141,69.51953 41.11914,-0.0781 v -69.44141 z m -97.59961,8.32031 v 22.72071 h 44.16016 v -22.72071 z m 109.75977,5.75977 h 35.20117 v 47.67969 h -23.28125 z m 51.20117,19.51953 v 36.16016 h 104.31836 v -36.16016 z m -69.60156,26.58008 c -6.4848,0 -12.9689,0.0567 -13.2793,0.17187 -1.232,0.4544 -3.75758,3.24587 -4.80078,4.28907 0.8832,1.232 3.42798,4.10182 4.80078,4.60742 0.6208,0.2304 25.93975,0.2304 26.56055,0 1.232,-0.4544 3.75563,-3.24391 4.79883,-4.28711 -0.8832,-1.232 -3.42603,-4.10378 -4.79883,-4.60938 -0.3104,-0.11517 -6.79645,-0.17187 -13.28125,-0.17187 z m 7.20117,15.05859 c -5.648,1.3312 -10.1506,3.62237 -13.4082,8.60157 -8.5056,13.00798 0.52711,30.37479 16.28711,30.40039 h 128.32031 c 2.7424,-0.003 5.4912,-0.56962 8,-1.69922 12.3936,-5.5872 15.43659,-21.82598 6.02539,-31.55078 -1.8016,-1.8624 -4.26922,-3.39564 -6.66602,-4.36524 -2.2944,-0.9248 -4.57186,-1.42192 -7.03906,-1.38672 z m 0.63867,6.06836 H 640 c 2.0224,-0.016 2.91278,0.21783 4.80078,0.95703 11.136,4.3552 11.53179,20.17259 0.95899,25.45899 -1.8624,0.9312 -4.00648,1.37284 -6.08008,1.39843 H 512 c -2.2656,-0.003 -4.31719,-0.29124 -6.40039,-1.24804 -7.1232,-3.2704 -10.16924,-12.32682 -6.43164,-19.23242 2.1792,-4.0288 5.55437,-6.27159 9.95117,-7.33399 z m 126.7207,6.37305 -123.83398,0.20898 c -1.9808,0.8768 -2.21729,1.90316 -2.24609,3.95118 v 6.40039 c 0.0192,3.776 1.21358,4.47446 4.80078,4.48046 h 120.95898 c 3.2736,-0.006 4.75278,-0.54735 4.80078,-4.16015 v -6.40039 c -0.0192,-3.4784 -1.00207,-4.46127 -4.48047,-4.48047 z"
       transform="scale(3.125)" />
  </g>
  <g
     inkscape:groupmode="layer"
     id="layer3"
     inkscape:label="Piles"
     style="display:inline"
     transform="translate(-6.2500005,-0.07934572)">
    <path
       style="display:inline;fill:#333333"
       d="m 370.88086,254.40039 h 31.67969 v 23.35938 h -31.67969 z"
       id="path58"
       transform="scale(3.125)" />
    <path
       style="display:inline;fill:#333333"
       d="m 188.80078,248.64062 h 31.35938 v 29.43946 h -31.35938 z"
       id="path54"
       transform="scale(3.125)" />
    <path
       style="display:inline;fill:#333333"
       d="m 279.67969,248.32031 h 32 v 29.43946 h -32 z"
       id="path52"
       transform="scale(3.125)" />
    <path
       style="display:inline;fill:#333333"
       d="m 325.11914,242.56055 h 32 v 35.19922 h -32 z"
       id="path48"
       transform="scale(3.125)" />
    <path
       style="display:inline;fill:#333333"
       d="m 234.24023,230.40039 h 32 v 47.35938 h -32 z"
       id="path44"
       transform="scale(3.125)" />
    <path
       style="display:inline;fill:#333333"
       d="m 415.67969,200.96094 h 31.35937 v 77.11914 h -31.35937 z"
       id="path40"
       transform="scale(3.125)" />
  </g>
</svg>
